<?xml version="1.0" encoding="UTF-8" standalone="no"?>
<!DOCTYPE svg PUBLIC "-//W3C//DTD SVG 1.1//EN" "http://www.w3.org/Graphics/SVG/1.1/DTD/svg11.dtd">
<svg width="410"
   height="404"
   viewBox="0 0 410 404"
   fill="none" xml:space="preserve" xmlns="http://www.w3.org/2000/svg" xmlns:xlink="http://www.w3.org/1999/xlink">
<defs/>
<path d="M0 0L410 0L410 404L0 404L0 0Z" fill="#ffffff" fill-rule="nonzero" opacity="1" stroke="none"/>
<clipPath id="ArtboardFrame">
<rect height="404" width="410" x="0" y="0"/>
</clipPath>
<g clip-path="url(#ArtboardFrame)" id="Layer-1">
<path d="M0 410.002L410 410.002L410 0.00197887L0 0.00197887L0 410.002Z" fill="#000000" fill-rule="nonzero" opacity="1" stroke="none"/>
<g opacity="1">
<path d="M99.783 99.7853L99.783 212.194L197.814 212.194L197.814 295.826L114.185 295.826L114.185 226.579L99.783 226.579L99.783 310.217L310.218 310.217L310.218 99.7853L99.783 99.7853ZM222.396 114.165L295.823 114.165L295.823 187.629L222.396 114.165ZM114.185 114.165L197.814 114.165L197.814 197.794L114.185 197.794L114.185 114.165ZM212.202 124.358L285.643 197.794L212.202 197.794L212.202 124.358ZM212.202 212.194L295.823 212.194L295.823 246.816L226.593 246.816L226.593 261.217L295.823 261.217L295.823 295.826L212.202 295.826L212.202 212.194Z" fill="#808080" fill-rule="nonzero" opacity="1" stroke="none"/>
<path d="M295.823 246.818L212.201 246.818L212.201 212.195L295.823 212.195L295.823 246.818ZM295.823 295.828L212.201 295.828L212.201 261.218L295.823 261.218L295.823 295.828ZM212.201 124.359L285.643 197.795L212.201 197.795L212.201 124.359ZM295.823 187.594L295.823 187.631L224.478 116.25L208.015 99.7861L197.814 99.7861L197.814 197.795L114.185 197.795L114.185 114.181L99.7899 99.7861L99.7824 99.7861L99.7824 212.194L197.814 212.194L197.814 310.219L310.218 310.219L310.218 201.989L295.823 187.594Z" fill="#f2f2f2" fill-rule="nonzero" opacity="1" stroke="none"/>
</g>
</g>
</svg>
