<?xml version="1.0" encoding="UTF-8" standalone="no"?>
<!DOCTYPE svg PUBLIC "-//W3C//DTD SVG 1.1//EN" "http://www.w3.org/Graphics/SVG/1.1/DTD/svg11.dtd">
<!-- Created with Vectornator (http://vectornator.io/) -->
<svg height="404.0pt" stroke-miterlimit="10" style="fill-rule:nonzero;clip-rule:evenodd;stroke-linecap:round;stroke-linejoin:round;" version="1.1" viewBox="0 0 410 404" width="410.0pt" xml:space="preserve" xmlns="http://www.w3.org/2000/svg" xmlns:xlink="http://www.w3.org/1999/xlink">
<defs/>
<path d="M0 0L410 0L410 404L0 404L0 0Z" fill="#ffffff" fill-rule="nonzero" opacity="1" stroke="none"/>
<g id="Layer-1">
<path d="M217.639 214.639L364.969 214.639L364.969 275.665L243.036 275.665L243.036 301.063L364.969 301.063L364.969 361.969L217.639 361.969L217.639 214.639ZM217.639 59.9658L347.034 189.361L217.639 189.361L217.639 59.9658ZM45.0309 42.0309L192.361 42.0309L192.361 189.361L45.0309 189.361L45.0309 42.0309ZM235.694 42.0309L365.089 42.0309L365.089 171.427L235.694 42.0309ZM19.6333 16.6333L19.6333 214.639L192.361 214.639L192.361 361.969L45.0309 361.969L45.0309 240.036L19.6333 240.036L19.6333 387.367L390.367 387.367L390.367 16.6333L19.6333 16.6333Z" fill="#adadad" fill-rule="nonzero" opacity="1" stroke="none"/>
<path d="M364.969 171.306L364.969 171.306L239.305 45.642L210.296 16.6333L192.361 16.6333L192.361 41.9106L192.361 76.8173L192.361 189.361L45.0309 189.361L45.0309 76.8173L45.0309 42.0309L19.6333 16.6333L19.6333 16.6333L19.6333 214.639L192.361 214.639L192.361 361.969L192.361 387.367L390.367 387.367L390.367 196.704L364.969 171.306ZM217.639 59.9658L347.034 189.361L217.639 189.361L217.639 59.9658ZM364.969 361.969L217.639 361.969L217.639 301.063L364.969 301.063L364.969 361.969ZM364.969 275.665L217.639 275.665L217.639 214.639L364.969 214.639L364.969 275.665Z" fill="#000000" fill-rule="nonzero" opacity="1" stroke="none"/>
</g>
</svg>
